<svg width="249" height="196" viewBox="0 0 249 196" fill="none" xmlns="http://www.w3.org/2000/svg">
<path d="M178.801 0H33.5979V190.01H178.801V0Z" fill="#D9D9D9"/>
<path d="M170.158 9.84599H42.2409V44.3933H170.158V9.84599Z" fill="white"/>
<path d="M169.812 56.1395H90.2961V180.51H169.812V56.1395Z" fill="white"/>
<path d="M128.872 22.755H96.5735V25.1809H128.872V22.755Z" fill="#D9D9D9"/>
<path d="M132.9 29.0585H92.252V31.4843H132.9V29.0585Z" fill="#D9D9D9"/>
<path d="M144.775 84.8397H112.477V87.2656H144.775V84.8397Z" fill="#D9D9D9"/>
<path d="M162.352 91.9613H112.477V94.3872H162.352V91.9613Z" fill="#FCC000"/>
<path d="M153.643 98.7437H112.995V101.17H153.643V98.7437Z" fill="#D9D9D9"/>
<path d="M136.206 106.185H112.477V108.611H136.206V106.185Z" fill="#D9D9D9"/>
<path d="M148.29 113.454H112.477V115.88H148.29V113.454Z" fill="#FCC000"/>
<path d="M101.711 84.0766H97.7557V88.0287H101.711V84.0766Z" fill="#D9D9D9"/>
<path d="M101.711 91.1982H97.7557V95.1503H101.711V91.1982Z" fill="#FCC000"/>
<path d="M101.711 97.9806H97.7557V101.933H101.711V97.9806Z" fill="#D9D9D9"/>
<path d="M101.711 105.422H97.7557V109.374H101.711V105.422Z" fill="#D9D9D9"/>
<path d="M101.711 112.691H97.7557V116.643H101.711V112.691Z" fill="#FCC000"/>
<path d="M144.775 120.769H112.477V123.195H144.775V120.769Z" fill="#D9D9D9"/>
<path d="M162.352 127.891H112.477V130.316H162.352V127.891Z" fill="#FCC000"/>
<path d="M153.643 134.673H112.995V137.099H153.643V134.673Z" fill="#D9D9D9"/>
<path d="M136.206 142.115H112.477V144.541H136.206V142.115Z" fill="#D9D9D9"/>
<path d="M148.29 149.384H112.477V151.81H148.29V149.384Z" fill="#D9D9D9"/>
<path d="M101.711 120.006H97.7557V123.958H101.711V120.006Z" fill="#D9D9D9"/>
<path d="M101.711 127.127H97.7557V131.08H101.711V127.127Z" fill="#FCC000"/>
<path d="M101.711 133.91H97.7557V137.862H101.711V133.91Z" fill="#D9D9D9"/>
<path d="M101.711 141.352H97.7557V145.304H101.711V141.352Z" fill="#D9D9D9"/>
<path d="M101.711 148.621H97.7557V152.573H101.711V148.621Z" fill="#D9D9D9"/>
<path d="M63.2895 16.8491C61.2567 16.8491 59.2696 17.4514 57.5794 18.58C55.8892 19.7085 54.5718 21.3126 53.7939 23.1893C53.016 25.066 52.8125 27.1311 53.2091 29.1233C53.6056 31.1156 54.5845 32.9457 56.0219 34.3821C57.4593 35.8184 59.2907 36.7966 61.2844 37.1929C63.2781 37.5892 65.3447 37.3858 67.2227 36.6084C69.1007 35.8311 70.7059 34.5147 71.8353 32.8257C72.9646 31.1367 73.5674 29.151 73.5674 27.1197C73.5595 24.3982 72.474 21.7904 70.5483 19.8661C68.6225 17.9417 66.0129 16.857 63.2895 16.8491ZM63.2895 19.9303C63.8993 19.9303 64.4955 20.111 65.0025 20.4495C65.5096 20.7881 65.9048 21.2693 66.1382 21.8323C66.3716 22.3953 66.4326 23.0148 66.3136 23.6125C66.1947 24.2102 65.901 24.7592 65.4698 25.1902C65.0386 25.6211 64.4892 25.9145 63.891 26.0334C63.2929 26.1523 62.673 26.0913 62.1095 25.8581C61.5461 25.6249 61.0646 25.2299 60.7258 24.7232C60.387 24.2165 60.2061 23.6208 60.2061 23.0114C60.2088 22.1951 60.5346 21.413 61.1122 20.8357C61.6899 20.2585 62.4726 19.933 63.2895 19.9303ZM63.2895 34.7634C62.0715 34.7578 60.8731 34.4554 59.7985 33.8823C58.7239 33.3092 57.8054 32.4828 57.1227 31.4748C57.1722 29.4207 61.2339 28.2899 63.2895 28.2899C65.3451 28.2899 69.4068 29.4207 69.4563 31.4748C68.7728 32.4821 67.8542 33.3079 66.7797 33.8809C65.7053 34.4539 64.5074 34.7567 63.2895 34.7634Z" fill="#FCC000"/>
<path d="M190.01 56.8653C190.01 56.8653 193.519 64.2681 195.858 65.0474L189.23 75.1776L183.771 68.554C183.771 68.554 184.161 63.8785 182.992 61.9304C181.822 59.9823 190.01 56.8653 190.01 56.8653Z" fill="#FBBEBE"/>
<path d="M184.551 63.4889C188.643 63.4889 191.959 60.1745 191.959 56.086C191.959 51.9975 188.643 48.6832 184.551 48.6832C180.46 48.6832 177.143 51.9975 177.143 56.086C177.143 60.1745 180.46 63.4889 184.551 63.4889Z" fill="#FBBEBE"/>
<path d="M174.414 109.075L176.363 114.53L178.703 111.802L176.739 105.589L174.414 109.075Z" fill="#FBBEBE"/>
<path d="M179.872 106.347C179.872 106.347 177.533 116.088 178.703 120.764C179.872 125.439 183.381 157.388 183.381 157.388L185.721 182.714L195.079 183.493L193.909 153.882L195.079 128.166L201.707 153.102V183.493L213.014 183.883L211.844 144.531C211.844 144.531 212.624 114.14 207.555 110.244C202.487 106.347 201.707 105.568 201.707 105.568L179.872 106.347Z" fill="#1A1A1A"/>
<path d="M187.67 182.324L186.891 185.051L185.721 188.558C185.721 188.558 182.212 195.571 188.06 194.402C193.909 193.234 193.129 190.506 193.129 190.506C193.129 190.506 195.079 189.337 194.689 188.948C194.299 188.558 194.299 182.714 194.299 182.714L187.67 182.324Z" fill="#1A1A1A"/>
<path d="M210.285 182.324L211.065 185.051L212.234 188.558C212.234 188.558 215.743 195.571 209.895 194.402C204.046 193.234 204.826 190.506 204.826 190.506C204.826 190.506 202.877 189.337 203.266 188.948C203.656 188.558 203.656 182.714 203.656 182.714L210.285 182.324Z" fill="#1A1A1A"/>
<path d="M189.23 70.5021L193.999 63.4889L202.877 68.1643L204.046 108.685C204.046 108.685 198.978 105.568 191.18 109.464C183.381 113.361 178.313 110.633 178.313 110.633L182.992 93.1003L181.042 69.7228L183.83 67.1938L189.23 70.5021Z" fill="#D9D9D9"/>
<path d="M183.831 66.4563L182.212 67.7747C182.212 67.7747 172.074 72.8398 171.684 76.3465L178.703 95.438C178.703 95.438 180.652 99.7239 179.093 101.282C177.533 102.841 175.973 106.737 176.363 108.685C176.753 110.633 174.024 118.815 177.143 118.815C180.262 118.815 187.67 100.113 187.28 92.7106C186.891 85.3078 186.621 65.9171 183.831 66.4563Z" fill="#1A1A1A"/>
<path d="M175.193 74.0087L172.79 74.2656C172.79 74.2656 170.515 75.9568 170.515 79.8531C170.515 83.7493 170.125 95.438 170.125 95.438C170.125 95.438 169.345 101.282 171.684 105.568C174.024 109.854 174.414 111.023 174.414 111.023L178.313 106.347V96.6069L179.872 90.3729L175.193 74.0087Z" fill="#1A1A1A"/>
<path d="M192.826 61.8859L196.638 63.4889C196.638 63.4889 209.895 66.9955 211.844 72.8398L206.386 86.4767C206.386 86.4767 210.285 111.413 209.115 111.413H207.945C207.945 111.413 211.065 113.75 209.115 114.53C207.165 115.309 202.487 121.543 201.317 118.815C200.147 116.088 193.129 83.7493 193.909 76.7361C194.689 69.7228 192.134 62.6206 192.826 61.8859Z" fill="#1A1A1A"/>
<path d="M187.475 46.5402V45.761H185.526C185.526 45.761 182.407 43.8129 179.677 46.1506C176.948 48.4884 175.778 49.6572 175.778 49.6572L174.609 51.2157L175.778 51.6053L174.609 52.7742H175.778L174.999 53.9431L177.184 56.8653C177.184 56.8653 176.948 53.9431 179.287 53.9431C181.627 53.9431 184.356 50.8261 184.356 50.8261L190.205 55.112C190.205 55.112 189.815 52.7852 191.18 52.7797C191.18 52.7797 191.764 46.9299 187.475 46.5402Z" fill="#1A1A1A"/>
<path d="M214.574 109.075L213.794 117.257C213.794 117.257 213.794 129.335 209.505 128.166C205.216 126.998 208.725 116.867 208.725 116.867L209.318 109.54L214.574 109.075Z" fill="#FBBEBE"/>
<path d="M205.996 70.8917C205.996 70.8917 211.065 68.9436 212.624 74.788C214.184 80.6323 216.133 92.321 216.133 92.321C217.763 96.4523 217.763 101.047 216.133 105.179L214.964 111.023L208.335 110.244L206.776 96.9965L205.216 80.2427L205.996 70.8917Z" fill="#1A1A1A"/>
</svg>
